<svg xmlns="http://www.w3.org/2000/svg" width="74.267" height="31.043" viewBox="0 0 74.267 31.043"><path d="M-191.258,21.706a12.071,12.071,0,0,0,2.417-.685,4.991,4.991,0,0,0,1.544-.98,4.723,4.723,0,0,0,.967-1.354l.4-.875L-192.381,3.1h5.864l3.55,9.127L-179.28,3.1h5.552L-181,19.465a11.673,11.673,0,0,1-2.34,3.61,9.2,9.2,0,0,1-2.994,2.023,13.217,13.217,0,0,1-3.618.9Zm41.013-3.548a7.079,7.079,0,0,1-3.041-2.847,8.65,8.65,0,0,1-1.06-4.372,8.858,8.858,0,0,1,1.014-4.295,7.5,7.5,0,0,1,2.792-2.926,7.9,7.9,0,0,1,4.117-1.058,7.557,7.557,0,0,1,3.946,1A6.615,6.615,0,0,1-139.9,6.488a9.686,9.686,0,0,1,.9,4.326v.747h-9.961a4.291,4.291,0,0,0,.853,2.412,3.606,3.606,0,0,0,2.87,1.043,7.71,7.71,0,0,0,2.386-.389,7.512,7.512,0,0,0,2.137-1.074l1.435,3.735a8.59,8.59,0,0,1-2.87,1.385,12.191,12.191,0,0,1-3.369.482A10.41,10.41,0,0,1-150.245,18.158Zm6.419-9.212a3.262,3.262,0,0,0-.586-1.6,2.207,2.207,0,0,0-1.856-.825,2.355,2.355,0,0,0-2.043.98,3.657,3.657,0,0,0-.572,1.447Zm-21.747,9.367a4.322,4.322,0,0,1-1.591-1.549V18.9h-5.583V-4h5.646V5.006a4.713,4.713,0,0,1,1.528-1.459A6.1,6.1,0,0,1-162.3,2.66a6.579,6.579,0,0,1,3.634,1.011,6.915,6.915,0,0,1,2.48,2.863,9.709,9.709,0,0,1,.9,4.31,9.884,9.884,0,0,1-.9,4.357,7.118,7.118,0,0,1-2.48,2.91,6.433,6.433,0,0,1-3.634,1.042A6.359,6.359,0,0,1-165.573,18.314Zm-.78-10.348a4.693,4.693,0,0,0-.811,2.941,4.8,4.8,0,0,0,.811,3.019,2.8,2.8,0,0,0,2.34,1.027,2.694,2.694,0,0,0,2.292-1.058,5.007,5.007,0,0,0,.8-3.05,4.688,4.688,0,0,0-.78-2.91,2.734,2.734,0,0,0-2.308-1.011A2.787,2.787,0,0,0-166.353,7.966ZM-205.044,18.9-212,3.127h5.864l3.55,9.1,3.686-9.1h5.552L-200.4,18.9Z" transform="translate(212.767 4.5)" fill="#5646eb" stroke="rgba(0,0,0,0)" stroke-miterlimit="10" stroke-width="1"/></svg>