<svg xmlns="http://www.w3.org/2000/svg" width="90" height="90" viewBox="0 0 90 90"><path d="M-396.651,1085h-76.7a6.717,6.717,0,0,1-4.7-1.888,6.3,6.3,0,0,1-1.949-4.557v-77.108a6.306,6.306,0,0,1,1.949-4.558,6.715,6.715,0,0,1,4.7-1.889h76.7a6.715,6.715,0,0,1,4.7,1.889,6.306,6.306,0,0,1,1.948,4.558v77.107a6.3,6.3,0,0,1-1.948,4.558A6.716,6.716,0,0,1-396.651,1085Zm-48.543-55.2c.174,3.764,0,40.151,0,40.519h13.467v-22.625a8.925,8.925,0,0,1,.444-3.286,8.4,8.4,0,0,1,2.425-3.371,6.918,6.918,0,0,1,4.486-1.555,5.933,5.933,0,0,1,5.238,2.538,11.761,11.761,0,0,1,1.584,6.624v21.674h13.466v-23.232c0-11.419-5.8-18.236-15.5-18.236a13.451,13.451,0,0,0-12.138,6.687V1029.8h-13.467Zm-20.923,0v40.518h13.468V1029.8Zm6.826-19.532c-4.487,0-7.62,2.879-7.62,7,0,4.056,3.13,7,7.442,7h.088a8.045,8.045,0,0,0,5.492-1.954,6.74,6.74,0,0,0,2.127-5.045C-451.855,1013.082-454.88,1010.268-459.291,1010.268Z" transform="translate(480 -995)" fill="#fff"/></svg>