<svg xmlns="http://www.w3.org/2000/svg" width="35" height="40" viewBox="0 0 35 40"><g transform="translate(-1164 -65)"><circle cx="14" cy="14" r="14" transform="translate(1164 77)" fill="#5646eb"/><g transform="translate(2544 1092.034)" fill="none"><path d="M-1348-995.034h-18a3,3,0,0,1-3-3v-26a3,3,0,0,1,3-3h11.489l9.512,9.465v19.534A3,3,0,0,1-1348-995.034Z" stroke="none"/><path d="M -1348.000244140625 -997.0337524414063 C -1347.448486328125 -997.0337524414063 -1346.999633789063 -997.4826049804688 -1346.999633789063 -998.0343017578125 L -1346.999633789063 -1016.737487792969 L -1355.337158203125 -1025.0341796875 L -1366.000244140625 -1025.0341796875 C -1366.551391601563 -1025.0341796875 -1366.999877929688 -1024.585693359375 -1366.999877929688 -1024.034423828125 L -1366.999877929688 -998.0343017578125 C -1366.999877929688 -997.4826049804688 -1366.551391601563 -997.0337524414063 -1366.000244140625 -997.0337524414063 L -1348.000244140625 -997.0337524414063 M -1348.000244140625 -995.0337524414063 L -1366.000244140625 -995.0337524414063 C -1367.654296875 -995.0337524414063 -1368.999877929688 -996.3797607421875 -1368.999877929688 -998.0343017578125 L -1368.999877929688 -1024.034423828125 C -1368.999877929688 -1025.6884765625 -1367.654296875 -1027.0341796875 -1366.000244140625 -1027.0341796875 L -1354.511596679688 -1027.0341796875 L -1344.999633789063 -1017.568786621094 L -1344.999633789063 -998.0343017578125 C -1344.999633789063 -996.3797607421875 -1346.345703125 -995.0337524414063 -1348.000244140625 -995.0337524414063 Z" stroke="none" fill="#fff"/></g><rect width="14" height="2" transform="translate(1180 89)" fill="#fff"/><rect width="14" height="2" transform="translate(1180 84)" fill="#fff"/><rect width="14" height="2" transform="translate(1180 79)" fill="#fff"/><rect width="5" height="2" transform="translate(1180 74)" fill="#fff"/><path d="M0,0,10,10H2A2,2,0,0,1,0,8Z" transform="translate(1188.65 65.65)" fill="#fff"/></g></svg>