<svg xmlns="http://www.w3.org/2000/svg" width="35" height="38.001" viewBox="0 0 35 38.001"><g transform="translate(-1163 -124.999)"><circle cx="14" cy="14" r="14" transform="translate(1163 135)" fill="#5646eb"/><g transform="translate(8 -19)"><path d="M-1357-1035c-6.617,0-12-2.692-12-6a2.993,2.993,0,0,1,.041-.5,3,3,0,0,1-.041-.5,2.991,2.991,0,0,1,.041-.5,3,3,0,0,1-.041-.5c0-3.309,5.383-6,12-6s12,2.692,12,6a3.011,3.011,0,0,1-.041.5,3.006,3.006,0,0,1,.041.5,3.011,3.011,0,0,1-.041.5,3.008,3.008,0,0,1,.041.5C-1345-1037.692-1350.383-1035-1357-1035Zm0-13c-5.514,0-10,2.019-10,4.5s4.486,4.5,10,4.5,10-2.019,10-4.5S-1351.486-1048-1357-1048Z" transform="translate(2535 1193)" fill="#fff"/><path d="M-1357-1035c-6.617,0-12-2.692-12-6a3.14,3.14,0,0,1,.166-1c.464,1.382,1.9,2.648,4.044,3.564A20.351,20.351,0,0,0-1357-1037a20.353,20.353,0,0,0,7.79-1.436c2.144-.916,3.581-2.182,4.044-3.564a3.142,3.142,0,0,1,.166,1C-1345-1037.692-1350.383-1035-1357-1035Z" transform="translate(2535 1197)" fill="#fff"/><path d="M-1357-1035c-6.617,0-12-2.692-12-6a3.14,3.14,0,0,1,.166-1c.464,1.382,1.9,2.648,4.044,3.564A20.351,20.351,0,0,0-1357-1037a20.353,20.353,0,0,0,7.79-1.436c2.144-.916,3.581-2.182,4.044-3.564a3.142,3.142,0,0,1,.166,1C-1345-1037.692-1350.383-1035-1357-1035Z" transform="translate(2535 1201)" fill="#fff"/><path d="M-1357-1035c-6.617,0-12-2.692-12-6a3.14,3.14,0,0,1,.166-1c.464,1.382,1.9,2.648,4.044,3.564A20.351,20.351,0,0,0-1357-1037a20.353,20.353,0,0,0,7.79-1.436c2.144-.916,3.581-2.182,4.044-3.564a3.142,3.142,0,0,1,.166,1C-1345-1037.692-1350.383-1035-1357-1035Z" transform="translate(2535 1205)" fill="#fff"/><path d="M-1357-1035c-6.617,0-12-2.692-12-6a3.14,3.14,0,0,1,.166-1c.464,1.382,1.9,2.648,4.044,3.564A20.351,20.351,0,0,0-1357-1037a20.353,20.353,0,0,0,7.79-1.436c2.144-.916,3.581-2.182,4.044-3.564a3.142,3.142,0,0,1,.166,1C-1345-1037.692-1350.383-1035-1357-1035Z" transform="translate(2535 1209)" fill="#fff"/></g><path d="M3.672-5.793-.342-9.126H3.042l2.34,2.2H4.788l2.43-2.2h3.2L6.354-5.793Z" transform="translate(1180.842 138.126)" fill="#fff"/></g></svg>