<svg xmlns="http://www.w3.org/2000/svg" width="110" height="90" viewBox="0 0 110 90"><path d="M73.5.02V0h5.158l1.885.38a20.049,20.049,0,0,1,3.422.969,24.263,24.263,0,0,1,2.976,1.4,28.266,28.266,0,0,1,2.609,1.628A16.081,16.081,0,0,1,91.63,6.113a2.873,2.873,0,0,0,2.847.479,37.873,37.873,0,0,0,4.166-1.249q2.232-.8,4.414-1.8t2.658-1.269q.466-.28.5-.3l.02-.03.1-.05.1-.05.1-.05.1-.05.02-.03.03-.02.03-.02.02-.03.1-.03.1-.02-.02.15-.03.15-.05.15-.05.15-.05.1-.05.1-.05.15a3.493,3.493,0,0,0-.1.4,16.812,16.812,0,0,1-.942,2,25.009,25.009,0,0,1-2.232,3.546,17.394,17.394,0,0,1-2.4,2.717q-1.071.929-1.418,1.3a4.264,4.264,0,0,1-.843.7l-.5.33-.1.05-.1.05-.02.03-.03.02-.03.02-.02.03-.1.05-.1.05-.02.03-.03.02-.03.02-.02.03-.02.03-.03.02-.03.02-.02.03H98l2.777-.6a49.424,49.424,0,0,0,5.307-1.448l2.678-.9.3-.1.149-.05.1-.05.1-.05.1-.05.1-.05.2-.03.2-.02v.2l-.05.02-.05.03-.02.03-.03.02-.03.02-.02.03-.02.03-.03.02-.03.02-.02.03-.02.03-.03.02-.05.1-.05.1-.03.02q-.02.03-1.26,1.7a14.022,14.022,0,0,1-1.339,1.7q-.1.03-.278.3a28.547,28.547,0,0,1-2.1,2.228,50.051,50.051,0,0,1-3.789,3.466,4.742,4.742,0,0,0-1.885,3.756q-.03,2.218-.228,5.014T97.9,35.61a72.479,72.479,0,0,1-1.686,7.342,67.067,67.067,0,0,1-2.777,7.991,62.441,62.441,0,0,1-3.422,6.992q-1.785,3.1-3.273,5.244t-3.025,4.046q-1.537,1.9-3.888,4.275t-2.579,2.6q-.228.22-1.944,1.638t-3.67,2.857a42.422,42.422,0,0,1-3.591,2.367q-1.637.949-3.948,2.168a46.808,46.808,0,0,1-4.979,2.277q-2.678,1.049-5.654,1.948a51.341,51.341,0,0,1-5.753,1.4q-2.777.5-6.3.849l-3.521.35V90H31.443v-.05L30.6,89.9q-.843-.05-1.389-.1t-4.116-.549q-3.571-.5-5.6-1t-6.05-1.9a58.637,58.637,0,0,1-6.874-2.827Q3.72,82.109,3,81.729T1.389,80.81L.5,80.261l-.02-.03-.03-.02-.03-.02-.02-.03-.1-.05-.1-.05-.02-.03-.03-.02-.03-.02-.02-.03-.02-.03-.03-.02H0v-.2l.1.02.1.03.446.05q.446.05,2.43.15t4.216,0a44.048,44.048,0,0,0,4.563-.45,51.092,51.092,0,0,0,5.5-1.2A40.481,40.481,0,0,0,23.19,76.3q2.648-1.179,3.769-1.758a36.655,36.655,0,0,0,3.392-2.118l2.281-1.548.02-.03.03-.02.03-.02.02-.03.02-.03.03-.02.03-.02.02-.03.1-.03.1-.02.02-.1.03-.1.03-.02.02-.03-.794-.05q-.793-.05-1.537-.1a14.817,14.817,0,0,1-2.331-.45,22.266,22.266,0,0,1-3.422-1.2,26.317,26.317,0,0,1-3.571-1.9,17.579,17.579,0,0,1-2.509-1.828q-.764-.719-1.984-2.038a20.193,20.193,0,0,1-2.1-2.727,24.56,24.56,0,0,1-1.706-3.226l-.823-1.818-.05-.15-.05-.15-.03-.1-.02-.1.149.02.149.03,1.091.15a24.076,24.076,0,0,0,3.422.1,26.312,26.312,0,0,0,3.224-.2q.893-.15,1.091-.2l.2-.05.248-.05.248-.05.02-.03.03-.02.03-.02.02-.03-.2-.05-.2-.05-.2-.05-.2-.05-.2-.05q-.2-.05-.694-.2t-2.678-1.1a20.432,20.432,0,0,1-3.472-1.848,24,24,0,0,1-2.46-1.968,28.192,28.192,0,0,1-2.549-2.777A20,20,0,0,1,6.794,42.1a24.1,24.1,0,0,1-1.637-4.3,23.337,23.337,0,0,1-.714-4.145l-.179-2.1.1.02.1.03.1.05.1.05.1.05.1.05,1.537.7a19.3,19.3,0,0,0,3.819,1.2q2.281.5,2.728.549l.446.05h.893l-.02-.03-.03-.02-.03-.02-.02-.03-.02-.03-.03-.02-.03-.02-.02-.03-.1-.05-.1-.05-.02-.03-.03-.02-.03-.02-.02-.03-.1-.05-.1-.05-.02-.03q-.03-.02-.853-.639a13.046,13.046,0,0,1-1.706-1.628q-.893-1-1.785-2.1A16.2,16.2,0,0,1,7.638,27.07,28.549,28.549,0,0,1,6.17,23.893a22.667,22.667,0,0,1-1.161-3.866,22.154,22.154,0,0,1-.446-3.846,24.386,24.386,0,0,1,.1-3.246,21.35,21.35,0,0,1,.6-3.047,23.849,23.849,0,0,1,1.289-3.6L7.39,4.4l.05-.15.05-.15.03-.02.02-.03.02-.03L7.588,4l.03.02.02.03.02.03.03.02.03.02.02.03.02.03.03.02.05.1.05.1.03.02.02.03,1.339,1.5q1.339,1.5,3.174,3.346a18.7,18.7,0,0,0,2.033,1.918,1.456,1.456,0,0,1,.5.459,20.3,20.3,0,0,0,1.984,1.768q1.686,1.4,4.414,3.246t6.05,3.646a58.835,58.835,0,0,0,7.142,3.246q3.819,1.448,5.356,1.9T45.18,26.62q3.72.7,5.6.9t2.579.23l.694.02-.02-.15-.03-.15-.2-1.249a23.637,23.637,0,0,1-.2-3.5,23.082,23.082,0,0,1,.347-4.145A24.693,24.693,0,0,1,55,14.734a20.618,20.618,0,0,1,1.359-3.127A30.776,30.776,0,0,1,58.124,8.94a21.483,21.483,0,0,1,2.827-3.1A20.862,20.862,0,0,1,64.919,3a25.705,25.705,0,0,1,4.116-1.9A19.073,19.073,0,0,1,72.209.25,10.962,10.962,0,0,0,73.5.02Z" fill="#fff"/></svg>